<?xml version="1.0" standalone="no"?>
<!DOCTYPE svg PUBLIC "-//W3C//DTD SVG 20010904//EN"
 "http://www.w3.org/TR/2001/REC-SVG-20010904/DTD/svg10.dtd">
<svg version="1.0" xmlns="http://www.w3.org/2000/svg"
 width="984.000000pt" height="984.000000pt" viewBox="0 0 984.000000 984.000000"
 preserveAspectRatio="xMidYMid meet">
<metadata>
Created by potrace 1.14, written by Peter Selinger 2001-2017
</metadata>
<g transform="translate(0.000000,984.000000) scale(0.100000,-0.100000)"
fill="#000000" stroke="none">
<path d="M4749 9836 c-2 -2 -44 -7 -94 -11 -49 -3 -103 -8 -120 -10 -57 -7
-123 -16 -146 -20 -13 -3 -41 -7 -64 -10 -22 -3 -49 -9 -60 -12 -11 -3 -31 -7
-45 -8 -35 -3 -268 -61 -370 -92 -118 -36 -232 -75 -358 -125 -59 -23 -109
-43 -112 -43 -8 -2 -135 -62 -240 -113 -52 -26 -153 -80 -225 -121 -71 -40
-140 -79 -152 -85 -13 -6 -23 -14 -23 -18 0 -5 -5 -8 -10 -8 -10 0 -90 -49
-100 -61 -3 -3 -16 -12 -29 -19 -33 -17 -250 -171 -331 -234 -87 -68 -89 -70
-103 -81 -7 -5 -35 -28 -62 -50 -28 -22 -55 -44 -61 -50 -6 -5 -42 -37 -80
-70 -213 -186 -552 -527 -701 -704 -15 -19 -35 -41 -43 -50 -8 -9 -46 -55 -85
-101 -38 -47 -76 -93 -85 -102 -8 -9 -28 -35 -44 -57 -17 -23 -33 -41 -38 -41
-4 0 -8 -6 -8 -14 0 -8 -4 -16 -8 -18 -5 -1 -39 -43 -76 -93 -37 -49 -74 -98
-83 -109 -22 -27 -43 -81 -43 -111 0 -36 34 -99 64 -118 14 -10 49 -26 77 -38
29 -11 71 -28 93 -38 54 -24 222 -96 311 -133 39 -16 79 -33 90 -38 88 -39
115 -50 124 -50 15 0 14 -2 -15 -73 -24 -56 -60 -158 -70 -197 -36 -144 -45
-180 -49 -205 -3 -16 -7 -41 -10 -55 -7 -40 -13 -81 -20 -140 -3 -30 -9 -73
-12 -95 -3 -22 -7 -195 -8 -385 -2 -190 -5 -356 -9 -369 -7 -29 -25 -91 -33
-111 -4 -8 -7 -17 -8 -20 -21 -63 -440 -924 -528 -1085 -46 -86 -71 -160 -80
-240 -2 -11 -5 -24 -8 -30 -6 -12 -3 -117 6 -170 27 -165 164 -311 330 -354
22 -5 87 -13 145 -16 137 -9 261 -16 283 -16 11 0 17 -8 17 -22 1 -12 3 -108
5 -214 2 -105 6 -227 9 -270 3 -43 8 -118 11 -168 3 -49 7 -126 10 -170 6
-104 14 -194 20 -225 4 -23 9 -59 20 -143 3 -18 11 -69 19 -115 l15 -83 -28
-62 c-45 -100 -81 -211 -95 -292 -28 -155 -31 -263 -11 -358 13 -65 71 -188
114 -240 32 -39 102 -107 110 -107 5 0 11 -3 13 -8 7 -18 192 -120 231 -128 4
-1 8 -2 10 -4 8 -6 155 -40 198 -45 135 -16 191 -19 354 -19 183 0 304 8 425
29 85 14 106 18 123 21 9 2 25 6 35 8 65 13 98 19 104 18 4 -1 18 2 31 7 13 5
39 12 58 15 19 3 89 19 157 36 68 16 125 30 127 30 7 0 -7 -208 -19 -275 -3
-17 -8 -46 -11 -65 -3 -19 -15 -73 -26 -119 -32 -131 -16 -191 61 -232 40 -22
87 -24 127 -7 61 26 83 69 113 211 39 189 48 264 54 462 3 79 8 112 17 117 15
9 68 30 84 33 18 5 300 117 325 130 14 7 54 28 90 45 129 65 295 166 390 238
120 91 219 205 288 332 33 59 56 106 58 115 2 6 19 48 38 94 31 75 41 103 51
136 2 6 12 35 23 65 11 30 39 105 61 165 75 206 84 228 159 385 52 112 90 170
146 225 50 49 69 85 69 129 0 109 -122 184 -218 134 -39 -21 -110 -96 -163
-175 -45 -67 -155 -273 -145 -273 3 0 -2 -8 -11 -19 -9 -10 -16 -22 -15 -27 2
-9 -1 -18 -33 -94 -11 -25 -23 -54 -27 -65 -15 -35 -42 -114 -43 -122 0 -5 -3
-12 -8 -18 -6 -8 -29 -69 -35 -95 -1 -3 -6 -16 -12 -30 -5 -14 -23 -61 -38
-105 -86 -245 -180 -399 -306 -500 -35 -29 -188 -129 -229 -151 -19 -11 -37
-22 -40 -25 -3 -3 -61 -33 -130 -67 -123 -59 -180 -83 -330 -137 -41 -15 -82
-29 -90 -32 -8 -3 -19 -7 -25 -8 -5 -2 -48 -15 -95 -30 -133 -41 -184 -57
-200 -60 -8 -2 -30 -8 -47 -14 -18 -5 -33 -7 -33 -4 0 3 -7 -1 -17 -8 -9 -8
-18 -13 -20 -11 -2 2 -51 -6 -83 -13 -3 -1 -23 -5 -45 -10 -22 -4 -49 -10 -60
-12 -83 -19 -163 -34 -200 -38 -16 -2 -30 -4 -30 -5 0 -3 -41 -10 -85 -15 -25
-3 -56 -8 -70 -11 -21 -4 -275 -17 -305 -16 -117 6 -214 13 -230 16 -11 2 -45
7 -75 11 -112 15 -255 81 -322 150 -33 32 -75 116 -84 165 -11 57 -7 100 22
254 3 16 7 33 10 38 3 5 7 19 10 32 5 31 60 163 85 204 24 42 29 80 17 141 -5
25 -11 57 -14 71 -2 14 -7 36 -10 50 -3 13 -7 40 -10 60 -2 19 -6 46 -9 60 -7
32 -15 94 -20 143 -3 32 -1 37 13 33 269 -81 529 -77 707 12 102 50 120 172
38 249 -23 22 -44 31 -88 37 -11 2 -58 -11 -105 -27 -88 -31 -203 -42 -280
-26 -19 4 -60 12 -90 18 -100 20 -219 63 -225 80 -2 9 -7 70 -10 135 -2 65 -6
121 -9 124 -3 2 -1 13 5 23 5 11 6 19 2 19 -5 0 -8 66 -8 147 l0 147 50 -2
c206 -10 260 -10 274 -2 84 47 114 151 63 219 -33 45 -66 62 -127 67 -33 2
-82 7 -110 10 -116 12 -157 15 -295 19 -125 3 -220 8 -405 20 -22 2 -60 3 -85
4 -32 1 -59 10 -87 28 -23 15 -41 29 -40 32 1 3 -5 17 -12 30 -18 33 -15 124
6 186 9 27 17 52 18 55 0 3 11 23 24 45 23 36 75 140 327 651 46 93 84 175 84
182 0 7 5 12 10 12 6 0 10 5 10 10 0 6 20 52 44 103 62 131 113 273 125 348 6
35 10 197 10 359 -1 306 4 425 25 560 4 25 10 59 12 75 4 26 13 66 30 140 3
11 7 31 10 44 3 14 7 28 10 33 3 4 7 16 9 25 2 10 9 32 16 48 6 17 13 36 15
43 1 7 30 68 64 135 48 95 62 132 62 167 0 24 -5 46 -11 48 -6 2 -11 9 -11 16
0 24 -46 54 -155 101 -60 26 -134 58 -163 71 -29 13 -54 24 -56 24 -2 0 -30
12 -62 27 -33 15 -61 27 -64 28 -3 0 -25 10 -50 21 -25 11 -71 31 -102 44 -32
14 -58 29 -58 34 0 7 12 24 80 110 8 10 22 26 30 35 8 9 28 35 44 56 17 22 32
42 36 45 3 3 25 30 50 60 25 30 52 62 60 70 8 9 40 45 70 80 163 189 477 504
647 647 27 24 61 53 75 65 61 55 334 268 344 268 3 0 10 5 17 10 46 39 65 53
97 72 19 12 37 25 40 28 4 6 117 77 208 131 132 79 375 207 482 253 125 55
145 63 205 86 33 12 74 29 92 36 17 8 36 14 41 14 6 0 23 5 39 12 15 6 33 12
39 13 12 3 150 45 174 53 25 8 34 11 65 17 17 3 44 10 60 15 17 5 55 14 85 19
254 50 271 53 540 76 149 13 542 2 650 -19 14 -2 50 -7 80 -11 84 -10 108 -14
138 -21 15 -3 46 -9 70 -13 l43 -8 32 66 c18 36 35 68 39 69 5 2 8 10 8 17 0
7 3 15 8 17 14 6 74 89 69 95 -6 6 -108 29 -167 38 -29 5 -53 10 -90 20 -3 0
-32 5 -65 9 -32 4 -68 10 -78 12 -11 2 -47 6 -81 9 -33 3 -74 8 -91 11 -34 6
-570 15 -576 10z"/>
<path d="M6524 9579 c-171 -44 -281 -126 -345 -258 -26 -53 -32 -76 -32 -135
0 -82 20 -137 95 -259 26 -43 48 -81 48 -83 0 -2 12 -23 26 -45 14 -23 27 -48
29 -58 2 -9 8 -29 13 -46 21 -69 -40 -141 -138 -165 -25 -6 -56 -13 -70 -16
-14 -4 -239 -7 -500 -9 -316 -1 -484 -5 -502 -13 -33 -14 -78 -62 -78 -84 0
-9 -3 -19 -8 -21 -4 -3 -7 -148 -6 -324 1 -293 3 -322 21 -369 71 -181 221
-208 408 -74 53 39 165 103 165 95 0 -3 15 1 34 9 68 28 167 28 236 -1 8 -3
20 -7 26 -8 29 -7 124 -77 162 -120 78 -89 114 -194 111 -324 -5 -224 -132
-425 -314 -498 -51 -20 -152 -24 -219 -9 -33 8 -132 59 -196 102 -56 37 -119
67 -170 81 -33 9 -110 4 -137 -10 -39 -21 -91 -83 -98 -117 -1 -3 -7 -25 -15
-50 -17 -57 -22 -937 -5 -987 13 -41 48 -81 83 -95 19 -8 241 -11 751 -12
l723 -1 -5 52 c-5 51 -42 134 -97 218 -57 87 -73 136 -71 219 4 145 140 255
366 294 53 9 228 9 287 -1 63 -10 198 -64 198 -79 0 -5 5 -8 11 -8 18 0 73
-62 94 -105 39 -80 25 -213 -32 -315 -92 -163 -124 -250 -99 -268 10 -8 634
-8 666 0 36 9 76 42 93 76 16 33 18 81 21 487 2 248 6 464 10 480 12 54 18 69
42 120 51 104 124 117 264 48 47 -24 101 -52 120 -64 31 -18 79 -44 130 -69
18 -9 115 -24 145 -23 44 2 105 12 117 19 7 5 18 9 25 10 21 3 100 62 139 104
34 36 121 180 109 180 -2 0 0 11 5 25 22 59 35 220 20 260 -4 11 -13 38 -20
60 -49 155 -213 278 -372 278 -82 0 -135 -16 -233 -70 -183 -101 -247 -120
-338 -100 -41 9 -106 66 -107 95 0 6 -4 12 -8 12 -9 0 -22 38 -41 111 -5 20
-9 179 -9 352 -1 338 -2 346 -54 393 -12 12 -34 25 -48 30 -14 4 -198 8 -410
9 -327 2 -395 4 -448 19 -105 28 -160 70 -164 126 -3 34 11 100 21 100 4 0 8
6 8 13 0 14 92 179 106 188 5 3 9 9 8 12 0 4 11 32 25 62 54 124 48 235 -21
350 -52 88 -164 172 -267 200 -5 2 -9 3 -10 4 -6 5 -68 11 -134 15 -46 2 -96
-3 -140 -15z"/>
<path d="M9080 6354 c0 -11 -108 -48 -175 -61 -22 -4 -43 -8 -47 -9 -5 -1 -17
-2 -29 -3 -11 0 -17 -6 -14 -11 4 -6 8 -22 11 -35 2 -14 6 -37 9 -52 3 -16 10
-62 16 -103 5 -41 12 -86 14 -100 14 -84 20 -215 20 -435 -1 -251 -5 -320 -30
-498 -9 -65 -14 -88 -35 -192 -6 -27 -12 -60 -15 -73 -2 -13 -7 -32 -10 -42
-3 -10 -8 -27 -10 -37 -12 -57 -54 -192 -65 -213 -7 -14 -13 -27 -12 -30 9
-28 -182 -470 -213 -492 -5 -4 -7 -8 -3 -8 7 0 -129 -240 -142 -250 -3 -3 -17
-23 -30 -45 -13 -22 -26 -42 -29 -45 -4 -3 -21 -27 -40 -55 -42 -61 -163 -215
-211 -269 -156 -176 -396 -412 -471 -463 -13 -10 -28 -22 -34 -28 -8 -10 -61
-52 -120 -98 -114 -88 -154 -117 -159 -117 -4 0 -12 -4 -19 -10 -43 -35 -83
-63 -169 -118 -53 -34 -98 -62 -101 -62 -2 0 -3 21 -1 47 7 96 13 170 19 239
6 57 3 78 -11 105 -22 44 -58 77 -92 85 -15 3 -32 7 -39 9 -7 2 -15 0 -18 -5
-3 -5 -11 -7 -18 -4 -19 7 -78 -37 -96 -71 -19 -36 -17 -30 -25 -120 -4 -38
-9 -94 -12 -123 -3 -29 -7 -98 -8 -152 -2 -54 -5 -102 -8 -106 -6 -14 -2 -386
6 -524 8 -133 11 -179 21 -275 3 -33 8 -80 10 -105 2 -25 7 -56 9 -70 3 -14 7
-43 10 -65 4 -35 27 -176 41 -245 2 -14 7 -38 10 -55 4 -16 15 -66 25 -110 10
-44 21 -91 24 -105 3 -14 17 -65 31 -115 14 -49 27 -97 30 -105 2 -8 8 -26 13
-40 5 -14 10 -29 11 -35 2 -15 50 -167 61 -190 4 -11 16 -42 26 -68 43 -120
187 -148 263 -51 41 52 38 83 -24 273 -79 242 -84 256 -90 293 -3 17 -8 35
-11 40 -3 4 -7 17 -10 28 -2 11 -6 30 -10 42 -3 13 -7 32 -9 43 -3 11 -8 31
-11 45 -24 97 -66 328 -78 425 -33 258 -47 432 -50 624 l-1 94 30 10 c17 6 32
13 35 17 3 3 21 15 40 26 19 10 37 21 40 24 3 3 34 23 70 44 36 22 67 42 70
45 9 10 44 31 63 37 9 4 17 9 17 13 0 3 18 17 40 31 22 14 40 28 40 32 0 5 6
8 13 8 7 0 22 8 33 18 10 9 44 35 74 57 30 22 57 42 60 45 3 3 23 18 45 35 22
16 42 31 45 35 3 3 30 25 60 50 30 25 60 49 66 55 229 203 412 391 539 550 21
28 42 52 45 55 3 3 37 48 75 100 39 52 73 97 77 98 5 2 8 8 8 13 0 4 26 48 58
96 68 102 162 266 162 281 0 6 3 12 8 14 6 3 75 140 102 203 5 11 18 43 30 70
12 28 27 64 35 80 30 68 125 367 151 475 11 51 56 282 60 315 3 22 8 51 10 65
5 27 10 73 21 195 14 167 6 618 -13 720 -2 11 -6 46 -9 79 -4 33 -8 62 -10 65
-1 3 -6 30 -10 60 -4 30 -9 63 -11 75 -3 12 -7 36 -9 55 -3 31 -35 80 -35 55z"/>
<path d="M3087 5704 c-1 -1 -33 -4 -72 -7 -157 -14 -271 -47 -415 -120 -85
-44 -127 -84 -136 -133 -11 -59 3 -100 48 -139 62 -52 106 -51 218 5 247 124
499 122 750 -6 88 -45 117 -49 171 -21 60 30 88 75 85 136 -2 51 -43 121 -70
121 -7 0 -25 9 -40 21 -14 11 -26 18 -26 14 0 -3 -12 2 -27 13 -30 21 -154 65
-230 83 -27 6 -57 13 -68 15 -11 3 -42 7 -70 9 -27 3 -65 6 -83 8 -18 2 -34 2
-35 1z"/>
<path d="M3019 5245 c-3 -2 -14 -6 -25 -8 -55 -9 -115 -67 -138 -132 -18 -56
-12 -119 19 -170 23 -41 85 -97 85 -78 0 4 4 2 9 -6 6 -9 31 -15 68 -17 91 -4
162 35 201 113 29 56 25 154 -9 204 -24 37 -76 79 -101 83 -7 1 -17 4 -23 7
-13 7 -80 11 -86 4z"/>
</g>
</svg>
